<svg xmlns="http://www.w3.org/2000/svg" width="512" height="512" viewBox="0 0 612 612"><path d="M336.884 124.068h-46.766v23.178h-21.847v-23.178h-47.053c-17.006 0-30.792 13.786-30.792 30.793v72.24l53.449 49.99c3.494 3.271 6.207 7.116 8.347 11.241h84.663c17.006 0 30.793-13.786 30.793-30.792V154.86c-.001-17.006-13.786-30.792-30.794-30.792zm-44.227 89.278v45.25h-27.332v-45.25h-19.322l33.107-39.178 32.986 39.322c.003 0-.187-.144-19.439-.144zM11.757 63.349C11.757 28.362 40.12 0 75.106 0s63.349 28.362 63.349 63.349-28.362 63.349-63.349 63.349c-34.987-.001-63.349-28.363-63.349-63.349zm218.971 258.062a20.611 20.611 0 0 1-15.1 6.551 20.624 20.624 0 0 1-14.116-5.572l-85.062-79.56v121.952c0 13.018-6.138 24.488-15.544 32.066l46.132 189.595c2.7 11.092-4.108 22.275-15.201 24.971-1.64.404-3.286.585-4.9.585-9.316 0-17.77-6.329-20.071-15.785l-26.49-108.867-14.918 104.255c-1.625 11.294-12.107 19.157-23.392 17.532-11.304-1.615-19.152-12.082-17.538-23.387l26.796-187.233c-10.595-7.486-17.561-19.772-17.561-33.731V204.267c0-22.832 18.512-41.343 41.343-41.343 5.284 0 10.294 1.084 14.94 2.891 3.638.73 7.137 2.385 10.046 5.103l129.66 121.272c8.339 7.803 8.778 20.884.976 29.221zm306.168-194.714c-34.986 0-63.35-28.362-63.35-63.349S501.909 0 536.896 0s63.348 28.362 63.348 63.349-28.362 63.348-63.348 63.348zM382.247 292.19l129.66-121.272c2.908-2.718 6.408-4.373 10.047-5.103 4.645-1.808 9.654-2.891 14.939-2.891 22.832 0 41.344 18.511 41.344 41.343v160.515c0 13.959-6.967 26.245-17.561 33.731l26.795 187.233c1.615 11.305-6.232 21.771-17.537 23.387-11.285 1.625-21.766-6.238-23.391-17.532l-14.918-104.255-26.492 108.867c-2.3 9.458-10.753 15.787-20.07 15.787-1.615 0-3.26-.182-4.9-.585-11.092-2.695-17.9-13.879-15.199-24.972l46.131-189.594c-9.406-7.578-15.545-19.049-15.545-32.067V242.83l-85.061 79.56a20.619 20.619 0 0 1-14.117 5.572c-5.52 0-11.031-2.2-15.1-6.551-7.8-8.337-7.361-21.418.975-29.221z" fill="#333"/></svg>