<svg xmlns="http://www.w3.org/2000/svg" width="512" height="512" viewBox="0 0 128 128"><path d="M128 27.953c0-9.547-2.633-15.609-7.824-18.016-6.32-2.945-14.066.953-18.734 4.016C99.043 3.57 95.465.656 92.93.047c-.305-.063-57.555-.063-57.859 0-2.535.609-6.113 3.523-8.512 13.906-4.668-3.063-12.414-6.961-18.734-4.016C2.633 12.344 0 18.406 0 27.953c0 28.156 28.176 47.719 33.172 50.961C39.082 87.273 48 102.016 48 107.992c0 5.641-9.98 10.891-13.477 12.289a4 4 0 0 0-2.449 4.469A3.997 3.997 0 0 0 36 128h56a3.996 3.996 0 0 0 3.926-3.25 4 4 0 0 0-2.449-4.469C89.98 118.883 80 113.633 80 107.992c0-5.977 8.918-20.719 14.828-29.078C99.824 75.672 128 56.109 128 27.953zm-24 16.008c0-8.656-.41-15.602-1.078-21.219 3.898-3.18 10.746-7.008 13.895-5.539 2.023.945 3.184 4.859 3.184 10.75 0 15.422-10.586 28.203-19.199 36.078 1.725-5.82 3.198-12.812 3.198-20.07zM8 27.953c0-5.891 1.16-9.805 3.184-10.75 3.148-1.469 9.996 2.359 13.895 5.539C24.41 28.359 24 35.305 24 43.961c0 7.258 1.473 14.25 3.199 20.07C18.586 56.156 8 43.375 8 27.953zm64 80.039c0 4.852 2.703 8.875 6.055 12.008h-28.11c3.352-3.133 6.055-7.156 6.055-12.008 0-10.656-15.035-31.953-16.438-33.828C39.488 74.008 32 59.102 32 43.961c0-26.82 4.07-34.32 5.355-36.016h53.289C91.93 9.641 96 17.141 96 43.961c0 15.141-7.488 30.047-7.563 30.203C87.035 76.039 72 97.336 72 107.992z" fill="#333"/></svg>