<svg xmlns="http://www.w3.org/2000/svg" width="512" height="512" viewBox="0 0 128 128"><path d="M56 16v16H38.383c-8.836 0-19.34 7.164-23.461 16L0 71.992V80c0 8.836 7.164 16 16 16 0 8.836 7.16 16 16 16s16-7.164 16-16h32c0 8.836 7.16 16 16 16s16-7.164 16-16c8.836 0 16-7.164 16-16V16H56zm-24 88c-4.41 0-8-3.586-8-8s3.59-8 8-8 8 3.586 8 8-3.59 8-8 8zm64 0c-4.41 0-8-3.586-8-8s3.59-8 8-8 8 3.586 8 8-3.59 8-8 8zm24-24c0 4.414-3.59 8-8 8h-2.219c-2.77-4.766-7.871-8-13.781-8s-11.012 3.234-13.781 8H45.781c-2.77-4.766-7.871-8-13.781-8s-11.012 3.234-13.781 8H16c-4.41 0-8-3.586-8-8v-8l6.395-8 7.32-11.773.254-.414.203-.43C24.949 45.422 32.676 40 38.383 40H56v32h64v8zm0-16H64V24h56v40z" fill="#333"/></svg>