<svg xmlns="http://www.w3.org/2000/svg" width="512" height="512" viewBox="0 0 128 128"><path d="M64 4C30.859 4 4 30.859 4 64c0-6.625 5.375-12 12-12s12 5.375 12 12c0 2.211 1.789 4 4 4s4-1.789 4-4c0-6.625 5.375-12 12-12s12 5.375 12 12c0 2.211 1.789 4 4 4s4-1.789 4-4c0-6.625 5.375-12 12-12s12 5.375 12 12c0 2.211 1.789 4 4 4s4-1.789 4-4c0-6.625 5.375-12 12-12s12 5.375 12 12c0-33.141-26.859-60-60-60zm32 48.016C92.352 47.148 86.531 44 80 44s-12.352 3.148-16 8.016C60.352 47.148 54.531 44 48 44s-12.352 3.148-16 8.016C28.352 47.148 22.531 44 16 44c7.852-18.773 26.406-32 48-32s40.148 13.227 48 32c-6.531 0-12.352 3.148-16 8.016zm-36 23.25V112c0 2.203-1.797 4-4 4s-4-1.797-4-4c0-2.211-1.789-4-4-4s-4 1.789-4 4c0 6.617 5.383 12 12 12s12-5.383 12-12V75.266c-1.258.445-2.594.734-4 .734s-2.742-.289-4-.734z" fill="#333"/></svg>