<svg xmlns="http://www.w3.org/2000/svg" width="512" height="512" viewBox="0 0 128 128"><path d="M74.163 91.965c-3.773-1.887-10.04-5.02-11.564-6.457 6.373-7.824 10.064-16.664 10.064-24.398 0-5.25 0-11.785-2.938-17.611C67.076 38.254 61.158 32 47.998 32c-13.158 0-19.075 6.254-21.724 11.498-2.942 5.826-2.942 12.361-2.942 17.611 0 7.738 3.69 16.574 10.062 24.398-1.521 1.441-7.79 4.574-11.56 6.457-7.47 3.738-12.214 6.211-15.049 9.043-6.278 6.281-6.751 16.82-6.784 18.867a7.981 7.981 0 0 0 2.297 5.734A7.995 7.995 0 0 0 8 128h79.997a8.002 8.002 0 0 0 5.7-2.391 7.958 7.958 0 0 0 2.297-5.734c-.031-2.047-.504-12.586-6.782-18.867-2.836-2.832-7.579-5.305-15.049-9.043zM7.998 120.008c.055-3.359 1.053-9.949 4.444-13.344 1.963-1.961 6.614-4.363 12.967-7.543 7.519-3.754 11.455-5.879 13.482-7.801l5.395-5.102-4.686-5.757c-5.254-6.453-8.269-13.508-8.269-19.352 0-4.633 0-9.881 2.082-14.004C35.828 42.324 40.6 40 47.998 40c7.399 0 12.172 2.324 14.586 7.104 2.083 4.125 2.083 9.373 2.083 14.006 0 5.844-3.012 12.895-8.271 19.352l-4.69 5.762 5.401 5.102c2.023 1.914 5.958 4.035 13.479 7.793 6.353 3.184 11.009 5.586 12.971 7.547 3.398 3.402 4.391 9.984 4.441 13.336l-80 .006zm113.215-51c-2.833-2.832-7.575-5.305-15.049-9.043-3.771-1.887-10.041-5.018-11.561-6.455 6.368-7.826 10.064-16.664 10.064-24.4 0-5.25 0-11.785-2.942-17.611C99.077 6.254 93.158 0 80 0S60.923 6.254 58.274 11.498c-2.74 5.428-2.926 11.455-2.938 16.502h8.005c.016-4.35.156-9.092 2.074-12.895C67.826 10.324 72.601 8 80 8s12.17 2.324 14.584 7.104c2.082 4.125 2.082 9.375 2.082 14.006 0 5.842-3.016 12.895-8.267 19.35l-4.691 5.764 5.402 5.102c2.021 1.914 5.954 4.035 13.471 7.793 6.36 3.184 11.014 5.586 12.971 7.547 3.403 3.402 4.396 9.984 4.446 13.336H84.001l11.997 8h24a8.01 8.01 0 0 0 5.703-2.391 7.988 7.988 0 0 0 2.298-5.734c-.031-2.049-.508-12.588-6.786-18.869z" fill="#333"/></svg>